# xmcd
#
# Track frame offsets:
#	150
#	15297
#	41783
#	61278
#	78189
#	94403
#	114174
#	135936
#
# Disc length: 2066 seconds
#
# Revision: 1
# Processed by: cddbd v1.5.2PL0 Copyright (c) Steve Scherf et al.
# Submitted via: audiograbber 1.83.01
#
DISCID=55081008
DTITLE=Junkyard Angels - Tangles and Twisted
DYEAR=1900
DGENRE=Blues
TTITLE0=She's Dynamite
TTITLE1=Time for Pain
TTITLE2=Tangled and Twisted
TTITLE3=Pretty Little Lights of Town
TTITLE4=Redwing Rumble
TTITLE5=TV Mama
TTITLE6=Jumco Partner
TTITLE7=Ed's Boogie
EXTD=Julian Piper - Guitar/vocals\nCraig Milverton - Keyboards\nOlly Davy - Bas
EXTD=s\nEd Lomax - Drums
EXTT0=
EXTT1=
EXTT2=
EXTT3=
EXTT4=
EXTT5=
EXTT6=
EXTT7=
PLAYORDER=
